# xmcd CD database file
# Copyright (C) 1995 Ti Kan
#
# Track frame offsets:
#	150
#	14590
#	33409
#	53758
#	72228
#	90047
#	110349
#	130729
#	153644
#	175419
#	191518
#	211275
#
# Disc length: 3163 seconds
#
# Revision: 3
# Processed by: cddbd v1.5.1PL2 Copyright (c) Steve Scherf et al.
# Submitted via: NotifyCDPlayer(CDDB) 1.60beta7
#
DISCID=9b0c590c
DTITLE=Do - Follow Me
DYEAR=1900
DGENRE=
TTITLE0=Sending Me Roses
TTITLE1=Beautiful Thing
TTITLE2=We Could
TTITLE3=Follow Me
TTITLE4=Under A Spell
TTITLE5=I Will
TTITLE6=Take It Like A Man
TTITLE7=Ordinary People
TTITLE8=Love Me
TTITLE9=Tune Into Me
TTITLE10=When Everything Is Gone
TTITLE11=I still believe in you
EXTD=
EXTT0=
EXTT1=
EXTT2=
EXTT3=
EXTT4=
EXTT5=
EXTT6=
EXTT7=
EXTT8=
EXTT9=
EXTT10=
EXTT11=
PLAYORDER=
